<?xml version="1.0" encoding="UTF-8" standalone="no"?>
<svg
   xmlns:dc="http://purl.org/dc/elements/1.1/"
   xmlns:cc="http://creativecommons.org/ns#"
   xmlns:rdf="http://www.w3.org/1999/02/22-rdf-syntax-ns#"
   xmlns:svg="http://www.w3.org/2000/svg"
   xmlns="http://www.w3.org/2000/svg"
   xmlns:sodipodi="http://sodipodi.sourceforge.net/DTD/sodipodi-0.dtd"
   xmlns:inkscape="http://www.inkscape.org/namespaces/inkscape"
   width="646"
   height="220"
   id="svg2"
   version="1.1"
   inkscape:version="0.91 r13725"
   sodipodi:docname="devops-logo-white.svg">
  <metadata
     id="metadata1426">
    <rdf:RDF>
      <cc:Work
         rdf:about="">
        <dc:format>image/svg+xml</dc:format>
        <dc:type
           rdf:resource="http://purl.org/dc/dcmitype/StillImage" />
        <dc:title></dc:title>
      </cc:Work>
    </rdf:RDF>
  </metadata>
  <defs
     id="defs1424" />
  <sodipodi:namedview
     pagecolor="#ffffff"
     bordercolor="#666666"
     borderopacity="1"
     objecttolerance="10"
     gridtolerance="10"
     guidetolerance="10"
     inkscape:pageopacity="0"
     inkscape:pageshadow="2"
     inkscape:window-width="1920"
     inkscape:window-height="1019"
     id="namedview1422"
     showgrid="false"
     inkscape:zoom="0.7071068"
     inkscape:cx="87.662398"
     inkscape:cy="91.848657"
     inkscape:window-x="-9"
     inkscape:window-y="-9"
     inkscape:window-maximized="1"
     inkscape:current-layer="layer1" />
  <g
     inkscape:groupmode="layer"
     id="layer1"
     inkscape:label="Layer 1"
     style="display:inline">
    <path
       style="fill:#ffffff;stroke:none;fill-opacity:1"
       d="m 181.95312,82.59375 c -6.46376,0.09957 -12.80981,1.057119 -17.57812,2.484375 -17.428,5.216404 -20.31125,24.628845 -18.28125,40.214845 1.027,7.882 2.85831,15.29137 9.32031,20.60937 14.385,11.837 37.48994,5.60863 53.96094,3.39063 -0.497,-6.294 -1.522,-12.86299 -3,-19 -7.381,1.085 -14.543,2.84684 -22,3.71484 -5.357,0.623 -10.026,0.25216 -11,-5.71484 9.808,-0.001 23.68837,0.33056 31.98438,-5.64844 10.328,-7.443 9.85876,-28.517317 -0.99024,-35.357421 -5.60081,-3.531431 -14.10546,-4.82138 -22.41602,-4.693359 z m 5.42188,19.69922 c -0.002,2.4718 0.62166,6.31638 -1.02734,8.39648 -2.236,2.82 -8.79166,1.60352 -11.97266,1.60352 0.033,-9.27221 4.506,-9.9766 13,-10 z"
       id="path176"
       inkscape:connector-curvature="0" />
    <path
       style="fill:#ffffff;stroke:none;fill-opacity:1"
       d="m 501.19531,82.84375 c -7.76556,0.05935 -15.35547,2.759811 -19.82031,8.449219 -5.607,-6.210404 -10.021,-6 -18,-6 l 0,87.000001 c 8.544,-0.001 17.599,-0.44 26,-2 -1.102,-4.627 -3.43156,-16.95949 2.14844,-19.39649 3.089,-1.348 7.55856,-0.60351 10.85156,-0.60351 8.825,-0.001 17.43758,-1.14406 22.89258,-9.03906 8.289,-11.99701 7.88489,-37.46422 -1.28711,-48.945316 -4.95816,-6.207021 -13.98419,-9.532113 -22.78516,-9.464844 z m -1.75976,19.42383 c 1.02762,-10e-4 2.02645,0.0279 2.93945,0.0254 l -0.002,21 c -0.014,2.669 0.32776,6.18981 -1.74024,8.25781 -2.623,2.622 -7.89281,1.74219 -11.25781,1.74219 l 0,-20 c 0.006,-2.768 -0.40548,-6.25893 1.60352,-8.48633 2.0355,-2.25622 5.37415,-2.53568 8.45703,-2.53906 z"
       id="path188"
       inkscape:connector-curvature="0" />
    <path
       inkscape:connector-curvature="0"
       style="fill:#ffffff;stroke:none;fill-opacity:1"
       d="m 574.37486,133.29313 c -12.713,1.607 -23.493,-0.978 -36,-2 l -3,18.00001 c 11.715,2.886 23.014,3.001 35,3 7.195,0 14.93,-0.091 20.957,-4.638 9.929,-7.493 10.035,-27.33201 0.003,-34.71301 -7.861,-5.784 -19.649,-5.649 -28.96,-5.649 l 0,-5 c 10.709,-1.3534 19.476,1.1404 30,2 0.722,-5.681004 1.63,-11.437804 3,-17.000008 -13.386,-5.0502 -33.457,-6.7573 -47,-1.3696 -12.453,4.954004 -15.928,22.482708 -8.297,33.326608 4.595,6.53 13.818,8.438 21.297,8.953 5.431,0.374 11.095,-1.186 13,5.09 z"
       id="path198" />
    <path
       inkscape:connector-curvature="0"
       style="fill:#ffffff;stroke:none;fill-opacity:1"
       d="m 213.37486,85.293122 c 4.508,21.842808 11.492,43.157008 16,65.000018 l 36,0 c 4.923,-21.52401 13.053,-43.11621 16,-65.000018 l -26,0 c -0.588,7.438304 -2.489,14.663404 -3.715,22.000008 -1.169,7.006 -1.501,14.412 -4.285,21 -2.147,-5.088 -2.45,-10.594 -3.424,-16 -1.616,-8.9595 -3.429,-17.968104 -4.576,-27.000008 l -26,0 z"
       id="path250" />
    <g
       style="font-style:normal;font-weight:normal;font-size:40px;line-height:125%;font-family:sans-serif;letter-spacing:0px;word-spacing:0px;fill:#ffffff;fill-opacity:1;stroke:none;stroke-width:1px;stroke-linecap:butt;stroke-linejoin:miter;stroke-opacity:1"
       id="text4151"
       transform="translate(27.964096,5.6893398)">
      <path
         d="m 20.595561,149.99644 c 0.97421,-36.1502 0.551757,-72.132794 0,-107.812495 l 35.742187,0 c 38.183595,0 57.025392,19.529297 57.025392,54.58789 0,16.699215 -9.8854,52.153625 -55.305177,53.401365 -13.987033,0.38424 -37.462402,-0.17676 -37.462402,-0.17676 z M 48.539127,67.034984 c -0.46741,24.389649 -0.73278,34.699346 -1.24632,59.088996 l 11.729004,-0.0737 C 80.767495,125.91364 85.213705,111.14742 85.463705,94.977493 85.710656,79.004793 80.548641,67.044382 60.844223,67.038597 Z"
         style="font-style:normal;font-variant:normal;font-weight:bold;font-stretch:normal;font-size:150px;font-family:'Malgun Gothic';-inkscape-font-specification:'Malgun Gothic Bold';fill:#ffffff;fill-opacity:1"
         id="path4202"
         inkscape:connector-curvature="0"
         sodipodi:nodetypes="ccssscccsssc" />
    </g>
  </g>
  <g
     inkscape:groupmode="layer"
     id="layer3"
     inkscape:label="Layer 3"
     style="display:none">
    <path
       inkscape:connector-curvature="0"
       style="display:inline;fill:#3c3c3c;stroke:none"
       d="m 110.3605,59.208959 -25.999999,2 0,19.999997 c -8.8393,0 -19.92369,-1.84035 -27.99609,2.40235 -17.6715,9.2877 -17.88218,45.068514 -4.67578,58.269524 9.1008,9.098 31.49647,9.73713 39.67187,-0.67187 5.949,5.5 11.302999,5 18.999999,5 l 0,-87.000001 z M 80.782381,98.197236 c 0.91279,-0.002 1.79035,0.0182 2.57812,0.0117 l 0,22.000004 c -0.005,2.41 0.55199,6.11331 -1.60351,7.82031 -2.5303,2.004 -7.38039,1.17969 -10.39649,1.17969 l 0,-21 c 0.0136,-2.5881 -0.36751,-6.1219 1.74219,-8.0625 1.88707,-1.735954 4.9413,-1.942884 7.67969,-1.949224 z"
       id="path106" />
  </g>
  <g
     inkscape:groupmode="layer"
     id="layer2"
     inkscape:label="Layer 2"
     style="display:inline">
    <path
       inkscape:connector-curvature="0"
       style="fill:#949494;fill-opacity:1;stroke:none"
       d="m 395.79836,199.0126 c 11.46961,-3.42329 21.98866,-9.08641 31.01685,-16.93271 39.47104,-34.30467 38.32123,-99.444419 -3.68325,-131.517127 -12.50831,-9.551403 -27.06004,-14.692478 -42.50212,-16.563392 -10.20857,-1.237019 -22.02354,-0.2123 -31.92189,2.725642 -12.51414,3.714153 -24.10571,9.497654 -33.86311,18.275063 -8.31925,7.483802 -15.448,16.726396 -20.15239,26.902647 -17.80122,38.504617 -3.84151,85.888377 32.29904,108.191667 12.23578,7.55098 25.73361,11.15319 39.96495,12.03632 9.21688,0.57188 19.95839,-0.46674 28.84192,-3.11811 z"
       id="path12" />
    <path
       inkscape:connector-curvature="0"
       style="fill:#ffffff;stroke:none"
       d="m 392.8012,184.25595 c 22.39644,-7.11571 39.95179,-25.37389 46.11132,-48.12402 7.91427,-29.22843 -5.53327,-63.156711 -31.85205,-78.211408 -6.79689,-3.88728 -14.56356,-7.310923 -22.34278,-8.558406 -12.04792,-1.932656 -25.32421,-0.557685 -36.89248,3.279275 -8.76047,2.905722 -16.50293,7.705478 -23.36404,13.819322 -6.461,5.758238 -11.80931,12.832692 -15.64027,20.60177 -3.70477,7.514953 -5.92059,15.753577 -6.57587,24.093747 -0.98484,12.5297 0.86669,26.0778 6.40576,37.48031 14.95184,30.78144 51.61334,45.95684 84.15041,35.61941 z"
       id="path48" />
    <path
       inkscape:connector-curvature="0"
       style="fill:#08007f;fill-opacity:1;stroke:none"
       d="m 400.3138,172.6123 c -1.54982,-4.13378 -3.56514,-8.11272 -3.50578,-12.64513 0.12581,-9.73869 7.83186,-18.471 17.21844,-20.38434 5.50448,-1.122 10.04392,1.37797 15.3868,1.86505 1.75874,-5.48979 3.63159,-10.8891 4.00022,-16.6835 0.36401,-5.72385 -0.76299,-11.34774 -0.47804,-17.08919 -7.04568,2.10762 -7.49002,10.40323 -15.65264,11.14071 -10.19214,0.92212 -15.38903,-16.80068 -25.67167,-5.72052 -3.24162,3.4931 0.5517,7.3229 0.13443,11.21345 -0.36817,3.43109 -3.45813,6.38723 -5.86258,8.60473 -6.52218,6.01571 -14.14832,-2.58112 -18.61888,6.83662 -0.60669,1.27876 -1.18289,2.7764 -1.32781,4.19475 -0.55082,5.36327 4.97129,6.27451 8.0964,9.21134 2.78314,2.61541 3.03355,6.95311 2.46008,10.55302 -1.27697,8.00972 -10.37926,7.50202 -9.47397,16.41586 11.77295,-1.07446 22.82644,-1.08553 33.295,-7.51285 z"
       id="path74" />
    <path
       inkscape:connector-curvature="0"
       style="fill:#bb1926;fill-opacity:1;stroke:none"
       d="m 340.22832,63.659389 c 7.12191,5.887796 15.66325,11.765983 15.90079,22.07457 0.53643,23.296981 -28.81348,33.998631 -43.07456,15.893661 l -1.98209,0.26704 c -1.85934,10.48011 -1.37068,19.78417 0.0414,30.26548 5.72329,0.23997 13.38362,1.81829 16.88308,6.82224 2.30953,3.30169 1.17819,9.38159 5.80789,10.70155 3.87413,1.10431 13.49054,-0.0693 14.77269,-4.55797 1.04405,-3.65705 -0.93822,-7.26337 1.05566,-10.86565 1.97486,-3.57116 7.42656,-6.46297 11.16156,-7.82183 6.84493,-2.48924 11.6943,7.58377 18.4307,1.98973 1.31132,-1.08914 2.48371,-2.51293 3.44977,-3.91043 1.30458,-1.88809 2.8415,-3.96894 2.68295,-6.39651 -0.46177,-7.03735 -9.51849,-7.80598 -7.64429,-16.1237 0.98452,-4.368576 2.39446,-9.518949 6.47273,-11.962361 3.15415,-1.88805 9.28174,-1.006317 9.98869,-5.540306 0.51718,-3.313725 -0.13942,-12.591125 -3.88463,-13.854373 -3.70699,-1.249226 -7.20732,0.600706 -10.93735,-1.590882 -4.87164,-2.861153 -5.77508,-9.791579 -10.43366,-12.254616 -2.36739,-1.252117 -5.9254,-0.309609 -8.40828,0.134888 -7.11937,1.276009 -13.57638,4.210429 -20.28309,6.729469 z"
       id="path402" />
  </g>
</svg>
